<svg xmlns="http://www.w3.org/2000/svg" xmlns:xlink="http://www.w3.org/1999/xlink" viewBox="0 0 424 222"><defs><path id="a" d="M.638.174H130.5v129.714H.638z"/><path id="c" d="M.5 222h447V0H.5z"/></defs><g fill="none" fill-rule="evenodd" transform="translate(-24)"><path fill="#D0E3FD" d="M124.112 197.054c-6.371-6.005-6.669-16.072-.666-22.443 6.005-6.371 16.072-6.669 22.443-.665 6.371 6.004 6.67 16.071.665 22.442-6.004 6.371-16.071 6.67-22.442.666m38.076-8.632l3.312-.098-.22-7.448-3.313.097a27.202 27.202 0 0 0-5.678-12.63l2.274-2.413-5.423-5.11-2.273 2.412a27.217 27.217 0 0 0-12.946-4.92l-.098-3.312-7.448.22.098 3.313a27.202 27.202 0 0 0-12.63 5.678l-2.413-2.274-5.111 5.423 2.413 2.274a27.195 27.195 0 0 0-4.92 12.945l-3.312.098.22 7.448 3.313-.098a27.198 27.198 0 0 0 5.678 12.63l-2.274 2.414 5.422 5.11 2.274-2.413a27.205 27.205 0 0 0 12.946 4.92l.098 3.312 7.448-.22-.098-3.313a27.193 27.193 0 0 0 12.63-5.678l2.413 2.274 5.11-5.422-2.412-2.273a27.211 27.211 0 0 0 4.92-12.946"/><path fill="#D0E3FD" d="M175.214 175.696c-5.071-2.088-7.498-7.911-5.41-12.982 2.087-5.071 7.912-7.498 12.983-5.41 5.071 2.087 7.498 7.91 5.41 12.982-2.088 5.07-7.912 7.498-12.983 5.41m18.589-.578l1.92.79 1.777-4.316-1.921-.79c.76-2.915.719-5.896-.017-8.675l1.916-.8-1.795-4.308-1.916.799a17.052 17.052 0 0 0-6.148-6.121l.79-1.92-4.317-1.777-.79 1.92a17.044 17.044 0 0 0-8.676.018l-.798-1.916-4.31 1.796.8 1.915a17.053 17.053 0 0 0-6.12 6.149l-1.921-.79-1.777 4.316 1.92.79a17.043 17.043 0 0 0 .018 8.675l-1.916.8 1.795 4.308 1.916-.799a17.046 17.046 0 0 0 6.15 6.12l-.792 1.921 4.317 1.777.79-1.92c2.916.76 5.896.718 8.676-.02l.798 1.918 4.31-1.796-.8-1.916a17.03 17.03 0 0 0 6.12-6.148M107.998 148.936c-6.03-2.482-8.917-9.408-6.435-15.44 2.483-6.029 9.409-8.915 15.44-6.433 6.03 2.482 8.916 9.409 6.434 15.44-2.483 6.029-9.409 8.916-15.44 6.433zm15.777 8.903l-.95-2.278a20.269 20.269 0 0 0 7.278-7.312l2.284.94 2.113-5.133-2.284-.94a20.251 20.251 0 0 0-.021-10.317l2.279-.95-2.135-5.124-2.28.95a20.255 20.255 0 0 0-7.31-7.278l.94-2.284-5.134-2.113-.94 2.284a20.257 20.257 0 0 0-10.316.021l-.95-2.279-5.124 2.135.95 2.278a20.278 20.278 0 0 0-7.279 7.312l-2.283-.94-2.113 5.133 2.284.94a20.251 20.251 0 0 0 .021 10.317l-2.279.95 2.135 5.124 2.28-.95a20.255 20.255 0 0 0 7.31 7.278l-.94 2.284 5.133 2.113.94-2.284a20.26 20.26 0 0 0 10.317-.02l.95 2.278 5.124-2.135z"/><g transform="translate(317.5 86)"><mask id="b" fill="#fff"><use xlink:href="#a"/></mask><path fill="#D0E3FD" d="M115.686 87.89c-1.89 4.47-4.775 8.893-8.171 12.976-3.367 4.164-7.695 7.717-12.38 10.786-4.699 3.087-10.016 5.383-15.541 6.829-5.528 1.4-11.28 2.104-16.894 1.681-5.586-.417-11.108-1.366-16.078-3.369-10.083-3.631-18.166-10.085-23.51-16.689-5.441-6.616-8.195-13.315-9.684-18.009-.725-2.366-1.2-4.257-1.43-5.562l-.392-1.993.443 1.982c.264 1.297.785 3.173 1.569 5.511 1.57 4.663 4.58 11.166 9.985 17.667 5.35 6.485 13.355 12.763 23.325 16.256 4.908 1.93 10.342 2.811 15.825 3.173 5.512.37 11.142-.38 16.542-1.787 5.42-1.368 10.652-3.571 15.287-6.561 4.624-2.973 8.912-6.424 12.257-10.49 3.395-4.027 6.221-8.247 8.162-12.715 2.114-4.336 3.405-8.764 4.174-12.9 1.541-8.307.971-15.458.032-20.287a56.005 56.005 0 0 0-1.341-5.57l-.61-1.939.658 1.922c.407 1.26.967 3.127 1.487 5.549 1.028 4.814 1.91 12.012.398 20.439-.74 4.192-2.007 8.683-4.113 13.1zM28.342 25.208c-.988.834-1.834 1.589-2.467 2.277l-2.058 2.089 1.913-2.223c.584-.728 1.376-1.538 2.316-2.447a29.886 29.886 0 0 1 3.249-2.95c1.211-1.065 2.637-2.07 4.159-3.119 1.502-1.073 3.216-2.018 4.981-2.989 1.817-.877 3.684-1.812 5.686-2.522 1.955-.83 4.05-1.363 6.116-1.97 2.108-.458 4.214-.914 6.329-1.124 2.095-.343 4.194-.322 6.205-.435 2.018.067 3.973.05 5.805.335l2.67.323 2.465.493c1.59.26 2.996.72 4.245 1.099 1.26.347 2.33.724 3.194 1.093l2.733 1.07-2.797-.883c-.88-.307-1.97-.61-3.242-.868-1.264-.286-2.678-.646-4.257-.857l-2.448-.395c-.853-.07-1.735-.142-2.642-.218-1.81-.213-3.732-.105-5.71-.168-1.973.137-4.03.14-6.08.504-2.07.228-4.126.708-6.185 1.176-2.027.568-4.09 1.064-6.014 1.854-1.972.67-3.813 1.566-5.608 2.404-1.732.95-3.462 1.796-4.98 2.796-1.535.976-2.979 1.913-4.213 2.92a42.044 42.044 0 0 0-3.365 2.735zm77.318 55.812c-8.84 22.116-33.955 32.887-56.097 24.058-22.143-8.83-32.926-33.916-24.086-56.034 8.84-22.116 33.956-32.888 56.097-24.058 22.143 8.83 32.926 33.917 24.086 56.034zm18.09-1.572a59.5 59.5 0 0 0-.388-30.323l6.676-2.863-6.444-14.993-6.677 2.863a59.593 59.593 0 0 0-21.744-21.164l2.695-6.743-15.17-6.05-2.696 6.743a59.704 59.704 0 0 0-30.359.387L46.777.635l-15.01 6.438 2.866 6.668a59.615 59.615 0 0 0-21.188 21.72l-6.75-2.692L.637 47.922l6.75 2.693a59.49 59.49 0 0 0 .387 30.323L1.1 83.8l6.445 14.993 6.676-2.863a59.59 59.59 0 0 0 21.744 21.164l-2.695 6.743 15.172 6.05 2.695-6.743a59.704 59.704 0 0 0 30.358-.386l2.866 6.668 15.01-6.437-2.866-6.668A59.597 59.597 0 0 0 117.692 94.6l6.75 2.691L130.5 82.14l-6.75-2.692z" mask="url(#b)"/></g><path fill="#D0E3FD" d="M263.45 123.22c.071-.279.114-.57.114-.87 0-1.878-1.487-3.397-3.322-3.397-.633 0-1.225.183-1.728.499-.852-2.588-3.244-4.452-6.061-4.452-3.533 0-6.398 2.93-6.398 6.543l.002.064a4.093 4.093 0 0 0-1.353-.23c-2.321 0-4.204 1.925-4.204 4.3s1.883 4.3 4.204 4.3h18.103c.122.015.246.023.371.023 1.834 0 3.322-1.52 3.322-3.397 0-1.783-1.344-3.242-3.05-3.384"/><path fill="#FFF" d="M251.5 123l-4-2v4zM255.5 123l-4-2v4zM259.5 123l-4-2v4z"/><path fill="#F8A688" d="M277.646 161.747c-1.7.523-3.37 1.16-4.995 1.907-2.776 1.277-5.632 3.127-6.642 6.165-.44 1.324-.483 2.754-.5 4.159-.113 9.085.837 18.052 2.037 27.02.299 2.243.473 4.5.632 6.751.055.75.108 1.51-.028 2.251a9.757 9.757 0 0 0 2.259-.474.267.267 0 0 0 .126-.07c.034-.042.036-.098.037-.15.016-1.658.022-3.385.375-5.02.392-1.598.482-3.255.833-4.865.759-3.469 1.548-6.936 2.06-10.468.095-.663.181-1.327.254-1.993.42-3.81-.275-7.446-.518-11.266-.02-.297-.03-.62.13-.863.139-.208.373-.31.599-.4 1.994-.788 7.997-1.307 9.061-3.467.411-.837-.24-2.702-.395-3.6-.3-1.726-.68-3.435-1.139-5.121-.114-.42-.26-.875-.612-1.098-.356-.227-.807-.143-1.21-.046-.794.192-1.582.408-2.364.648"/><path fill="#F8A688" d="M271.321 209.951c.173 1.134.22 2.284.143 3.428-.005.089-.015.186-.076.257-.081.095-.228.12-.361.13-.824.065-1.298-.13-1.953.431-.445.38-1.013.62-1.569.853-.685.287-1.372.575-2.087.797-.454.141-2.57.418-1.718-.484.11-.116.266-.198.43-.272.166-.074.349-.13.56-.204 1.286-.577 2.368-1.232 2.978-2.461a8.669 8.669 0 0 0 .856-4.426c0 .014 1.312.046 1.432.051.333.013.861-.1 1.04.217.231.405.202.95.278 1.393.017.097.032.193.047.29"/><path fill="#2A284F" d="M272.396 216.844c-.01.079-.01.122-.01.122l-1.749.015-.012-2.508c-.24.513-.488 1.026-.834 1.47-.345.443-.814.825-1.362.963-.31.086-.635.085-.955.094a53.26 53.26 0 0 1-2.032-.048c-.273-.018-.565-.044-.759-.218-.026-.019-.052-.054-.08-.08-.104-.14-.122-.313-.086-.488a.882.882 0 0 1 .195-.39h.009c.106-.123.257-.21.416-.287.159-.078.336-.148.486-.2a.067.067 0 0 0 .043-.016h.01c1.254.29 3.498-.054 6.363-5.273.009.017.009.035.017.052.666 2.684.403 6.104.34 6.792"/><path fill="#FFB9A1" d="M286.646 161.747c-1.7.523-3.369 1.16-4.994 1.907-2.776 1.277-5.633 3.127-6.643 6.165-.44 1.324-.482 2.754-.5 4.159-.113 9.085.838 18.052 2.037 27.02.3 2.243.473 4.5.633 6.751.054.75.107 1.51-.03 2.251a9.757 9.757 0 0 0 2.26-.474.267.267 0 0 0 .126-.07c.034-.042.037-.098.037-.15.016-1.658.022-3.385.375-5.02.393-1.598.482-3.255.833-4.865.758-3.469 1.548-6.936 2.06-10.468.095-.663.18-1.327.254-1.993.42-3.81-.275-7.446-.518-11.266-.02-.297-.03-.62.13-.863.139-.208.373-.31.599-.4 1.994-.788 7.997-1.307 9.061-3.467.41-.837-.24-2.702-.395-3.6-.3-1.726-.68-3.435-1.139-5.121-.114-.42-.26-.875-.61-1.098-.358-.227-.808-.143-1.213-.046-.793.192-1.58.408-2.363.648"/><path fill="#FFB9A1" d="M280.321 209.951c.173 1.134.22 2.284.143 3.428-.005.089-.015.186-.076.257-.081.095-.227.12-.361.13-.824.065-1.298-.13-1.952.431-.446.38-1.014.62-1.57.853-.685.287-1.372.575-2.087.797-.454.141-2.57.418-1.718-.484.11-.116.266-.198.43-.272.166-.074.349-.13.56-.204 1.286-.577 2.368-1.232 2.978-2.461a8.66 8.66 0 0 0 .856-4.426c0 .014 1.312.046 1.432.051.333.013.861-.1 1.04.217.231.405.202.95.278 1.393.017.097.032.193.047.29"/><path fill="#2A284F" d="M280.396 216.844c-.01.079-.01.122-.01.122l-1.749.015-.013-2.508c-.238.513-.487 1.026-.833 1.47-.346.443-.814.825-1.363.963-.309.086-.635.085-.954.094-.68-.002-1.36-.02-2.031-.048-.275-.018-.566-.044-.76-.218-.027-.019-.052-.054-.08-.08-.105-.14-.122-.313-.086-.488a.87.87 0 0 1 .194-.39h.01c.105-.123.257-.21.415-.287.16-.078.337-.148.487-.2a.072.072 0 0 0 .044-.016h.008c1.254.29 3.499-.054 6.364-5.273.009.017.009.035.018.052.665 2.684.402 6.104.339 6.792M241.492 212l6.67 3.61c.574.343.372 1.39-.268 1.39h-10.102c-.737 0-1.324-.745-1.29-1.64l.122-3.36h4.868z"/><path fill="#3D3A73" d="M234.43 212l6.733 3.61c.572.343.37 1.39-.268 1.39h-10.103c-.736 0-1.323-.745-1.29-1.64l.123-3.36h4.805z"/><path fill="#F8A688" d="M213.998 122.688c-.071-2.841-1.714-5.265 1.387-7.438 1.24-.87 2.894-1.324 4.517-1.24.17.009.35.026.484.11.155.094.224.253.285.402.233.57.465 1.14.699 1.709.075.183.15.373.125.566-.04.315-.337.561-.624.773-1.588 1.169-3.468 1.99-3.434 3.838.024 1.221-.195 3.03-1.9 3.52-1.58.452-1.517-1.315-1.54-2.24"/><path fill="#2C7EF4" d="M192.783 122.601c.976 3.776 4.28 7.97 6.777 10.006 4.796 3.91 10.11 7.484 15.792 9.936.638.275 1.278.53 1.73.438.51-.105.75-.642.96-1.2.8-2.126 1.285-4.67 1.45-7.585.063-1.102-.27-12.195-.59-12.187l-5.167.11c-1.466 2.56-1.42 5.772-1.439 8.99.003-.554-2.352-3.434-2.755-4.085a21.878 21.878 0 0 0-2.878-3.698 23.942 23.942 0 0 0-8.905-5.834c-1.29-.474-2.827-.807-3.959-.02-.698.486-1.095 1.324-1.23 2.17-.146.92-.053 1.924.214 2.96"/><path fill="#4521B0" d="M222.369 117l-6.327-.187L215.5 107l8 .237z"/><path fill="#AFC4D5" d="M223.46 109l-7.96-.39.039-1.61 7.961.389z"/><path fill="#371991" d="M243.238 212h-5.549c-.455-5.874-1.76-13.697-2.685-19.513a90.608 90.608 0 0 0-.316-2.04c-.952-5.76-1.242-11.764.33-17.365-1.682-.043-3.365-.073-5.047-.03-1.076.03-2.152.044-3.213.073-1.049.014-2.097.043-3.144.057-5.02.115-10.04.216-15.06.33l-6.261.13c-.262-.058-.524-.1-.772-.158-14.826-3.376-6.91-15.484-6.91-15.484h15.363c3.365 0 6.868 1.407 10.247 1.623 4.95.302 9.57 1.695 14.369 2.514 2.966.503 5.683.905 7.503 3.26 1.683 2.169 1.407 4.826 1.365 7.426-.069 3.404-.11 6.809-.137 10.213-.029 1.91-.525 23.492-.083 28.964"/><path fill="#4521B0" d="M233.92 212h-5.72c-.501-6.522-1.301-14.97-2.358-21.421-.934-5.71-1.219-11.66.312-17.212 0-.015.014-.028.014-.043-1.653-.043-3.306-.07-4.959-.028l-6.245.128-13.602.3c-2.3.05-5.565-1.912-7.081-3.672-1.183-1.373-1.778-3.113-1.781-4.962-.002-1.56.389-3.14.98-4.562 1.118-2.691 4.103-3.371 6.687-3.492 6.026-.282 11.961 1.127 17.744 2.768 2.97.843 5.922 1.757 8.901 2.561 2.299.622 4.733 1.274 6.305 3.324 1.654 2.155 1.383 4.795 1.342 7.378a857.485 857.485 0 0 0-.135 10.148c-.014.799-.055 4.71-.069 9.391-.012 6.423-.594 16.254-.336 19.394"/><path fill="#2C7EF4" d="M190.671 115.015a5.632 5.632 0 0 0-.168.01c-8.628.599-11.538 11.413-10.924 18.499.163 1.89.6 3.748 1.034 5.595l4.236 18.029c.508 2.164 1.02 4.337 1.832 6.408a23.515 23.515 0 0 0 5.313 8.075c.192.19.422.39.691.367.204-.016.372-.156.525-.289l18.257-15.93c.412-.358.844-.75.984-1.277.167-.628-.125-1.277-.4-1.866a63.943 63.943 0 0 1-4.919-15.302c-1.143-6.114-2.23-13.267-6.656-18.062-2.49-2.696-6.128-4.453-9.805-4.257"/><path fill="#494E5E" d="M182 215h-1c-.825 0-1.5-.56-1.5-1.245v-40.51c0-.685.675-1.245 1.5-1.245h1c.825 0 1.5.56 1.5 1.244v40.511c0 .685-.675 1.245-1.5 1.245"/><path fill="#494E5E" d="M182.305 175.922l-.874.073c-.719.06-1.36-.437-1.425-1.102l-4.5-46.496c-.066-.666.47-1.26 1.189-1.32l.874-.072c.72-.06 1.36.437 1.425 1.102l4.5 46.496c.064.665-.47 1.26-1.19 1.32"/><path fill="#494E5E" d="M222.438 175h-41.876c-.584 0-1.062-.505-1.062-1.125v-.75c0-.62.478-1.125 1.062-1.125h41.876c.583 0 1.062.505 1.062 1.125v.75c0 .62-.479 1.125-1.062 1.125"/><path fill="#494E5E" d="M222 215h-1.001c-.825 0-1.499-.56-1.499-1.245v-40.51c0-.685.674-1.245 1.499-1.245H222c.825 0 1.5.56 1.5 1.244v40.511c0 .685-.675 1.245-1.5 1.245"/><mask id="d" fill="#fff"><use xlink:href="#c"/></mask><path fill="#494E5E" d="M181.5 183h41v-2h-41zM323.999 215H325c.825 0 1.5-.56 1.5-1.245v-40.51c0-.685-.675-1.245-1.5-1.245h-1.001c-.825 0-1.499.56-1.499 1.244v40.511c0 .685.674 1.245 1.499 1.245" mask="url(#d)"/><path fill="#494E5E" d="M323.695 175.922l.874.073c.718.06 1.36-.437 1.424-1.102l4.502-46.496c.065-.666-.47-1.26-1.19-1.32l-.874-.072c-.719-.06-1.36.437-1.424 1.102l-4.502 46.496c-.064.665.471 1.26 1.19 1.32" mask="url(#d)"/><path fill="#494E5E" d="M283.562 175h41.877c.583 0 1.061-.505 1.061-1.125v-.75c0-.62-.478-1.125-1.061-1.125h-41.877c-.583 0-1.062.505-1.062 1.125v.75c0 .62.479 1.125 1.062 1.125" mask="url(#d)"/><path fill="#494E5E" d="M283 215h1c.825 0 1.5-.56 1.5-1.245v-40.51c0-.685-.675-1.245-1.5-1.245h-1c-.825 0-1.5.56-1.5 1.244v40.511c0 .685.675 1.245 1.5 1.245" mask="url(#d)"/><path fill="#494E5E" d="M283.5 183h41v-2h-41z" mask="url(#d)"/><path fill="#F8A688" d="M197.478 105.11a9.717 9.717 0 0 1-1.808 5.074c-.883 1.23-2.144 1.814-2.23 3.476-.082 1.533-.21 3.022-.335 4.555-2.397 1.425-4.33.583-5.193.022.063-2.18.63-4.922-.736-6.714-3.68-4.836-4.562-15.371 3.89-15.522 1.43-.021 2.838.605 3.911 1.598 1.87 1.792 2.669 4.944 2.501 7.512" mask="url(#d)"/><path fill="#FFF" d="M195.499 105c.05 1.619-1.478 2.959-3.418 3-1.926.04-3.533-1.233-3.581-2.851l6.999-.149z" mask="url(#d)"/><path fill="#2A284F" d="M191.059 96.981c-2.524.798-4.56 3.665-4.865 6.189.061-.513-.421-.353-.563-.155-.226.315-.434 1.031-.55 1.422-.175.576-.095 1.138-.09 1.725.002.252.306 1.605.472 1.838-1.2-.016-1.865-1.222-2.503-2.06-1.963-2.57-3.427-6.132-1.68-9.241 1.345-2.393 4.217-3.381 6.86-4.08 2.642-.7 5.522-1.438 7.191-3.614.15-.195 2.057 4.981 2.112 5.57.168 1.86-.033 4.43-.627 6.211-.146-1.504-1.114-2.901-2.466-3.561a4.337 4.337 0 0 0-3.291-.244" mask="url(#d)"/><path fill="#F8A688" d="M185.334 102.326c-.408-.294-.894-.452-1.299-.201-.31.193-.49.545-.526.9-.038.355.052.713.188 1.045.271.666.73 1.26 1.313 1.7.14.106.298.207.475.226.397.045.712-.316.894-.66.293-.549-.007-1.625-.274-2.145-.14-.276-.428-.618-.77-.865" mask="url(#d)"/><path fill="#4521B0" d="M283.592 124l-6.327-.079L276.5 114l8 .1z" mask="url(#d)"/><path fill="#AFC4D5" d="M284.483 115l-7.983-.092.016-.908 7.984.092z" mask="url(#d)"/><path fill="#F8A688" d="M283.265 118.652a12.676 12.676 0 0 1 1.348 2.786c.366 1.068.405 2.344.887 3.305-.63.498-1.441.821-2.139 1.201-.063.035-.133.07-.202.05-.062-.02-.106-.082-.146-.142-.335-.499-.672-1-.953-1.54-.312-.599-.56-1.25-.972-1.762-.172-.212-.37-.403-.493-.656-.122-.253-.143-.6.034-.806.17-.2.466-.193.678-.055.213.138.358.376.484.613.613 1.145.758-.201.837-.831.12-.933.18-1.874.18-2.815.16.211.312.428.457.652" mask="url(#d)"/><path fill="#C35BDC" d="M302.454 111.013a1.476 1.476 0 0 0-.922.186c-.55.298-1.032.792-1.461 1.24-1.997 2.089-3.409 4.775-4.668 7.345-.94 1.917-1.93 3.594-2.54 5.665-.363 1.232-1.807 4.904-1.222 6.093a59.654 59.654 0 0 0-5.332-8.818 18.864 18.864 0 0 1-3.805 1.526c-.104 2.21 1.762 5.16 2.595 7.174a11.71 11.71 0 0 0 4.52 5.35c.181.114.379.223.596.226.178.002.347-.066.509-.137 7.26-3.18 10.838-12.586 13.033-19.422.38-1.18.811-2.387.734-3.618-.072-1.142-.915-2.656-2.037-2.81" mask="url(#d)"/><path fill="#2A284F" d="M319.512 110.063c-.58-2.458-1.253-4.892-2.086-7.278-1.507-4.313-4.219-12.47-9.336-13.479-15.393-3.035-10.184 17.325-7.716 25.082.801 2.517 1.773 5.256 4.062 6.592 1.584.926 3.513.993 5.35 1.01a200.08 200.08 0 0 0 9.77-.143c.575-.023 1.215-.076 1.603-.499.455-.494.363-1.262.241-1.922-.572-3.126-1.157-6.263-1.888-9.363" mask="url(#d)"/><path fill="#F2BAA8" d="M307.009 110.996l.376-4.354c1.754-1.277 2.754-3.7 3.053-5.796.299-2.095-.493-4.357-2.202-5.688-1.71-1.332-4.32-1.576-6.155-.41-1.263.801-2.07 2.162-2.385 3.586-.573 2.586.127 5.28 1.872 7.325.155.182.322.365.39.591.046.153.043.317.04.476-.022 1.102-.123 2.232-.068 3.333.049.958.426.929 1.353.937 1.241.01 2.484 0 3.726 0" mask="url(#d)"/><path fill="#F8A688" d="M307.009 110.996l.376-4.354c1.754-1.277 2.754-3.7 3.053-5.796.299-2.095-.493-4.357-2.202-5.688-1.71-1.332-4.32-1.576-6.155-.41-1.263.801-2.07 2.162-2.385 3.586-.573 2.586.127 5.28 1.872 7.325.155.182.322.365.39.591.046.153.043.317.04.476-.022 1.102-.123 2.232-.068 3.333.049.958.426.929 1.353.937 1.241.01 2.484 0 3.726 0" mask="url(#d)"/><path fill="#C35BDC" d="M306.898 171.54c-.283.127-.568.244-.855.35-3.562 1.336-8.231.183-11.99.59-2.046.222-3.901.472-5.679 1.6-.558.355-4.042 3.098-3.574 3.92-3.67-6.432-10.799-12.073-18.3-12.704a113.283 113.283 0 0 1 22.13-10.438c2.99-1.032 6.396-2.272 7.556-5.243.863-2.212-.014-4.088-.248-6.27-.2-1.844.16-3.734-.122-5.63-.69-4.649-.91-9.653-.711-14.383.106-2.533.374-5.104 1.14-7.547.34-1.082.733-2.227 1.375-3.178.246-.363 3.276-3.522 3.278-3.518.525.898 1.752 1.296 2.854 1.19 1.103-.107 2.105-.624 3.037-1.176.096-.057.205-.118.319-.1a.465.465 0 0 1 .197.098c3.424 2.445 5.407 5.784 6.003 10.051.77 5.515-1.185 10.89-1.474 16.36-.287 5.39 1.168 10.194 2.529 15.344 1.106 4.19 1.795 8.754.189 12.774-1.458 3.654-4.12 6.338-7.654 7.91" mask="url(#d)"/><path fill="#CA6CE0" d="M308.413 113.016c-.277.043-.542.18-.78.44-.41.445-.7 1.06-.957 1.615-1.19 2.587-1.673 5.588-2.051 8.432-.598 4.487-.784 9.044-.834 13.583 0 0-7.698-.654-18.291 1.6l.249 2.9s12.538.96 19.071-.044c1.204-.185 2.212-1.03 2.7-2.22a52.78 52.78 0 0 0 3.98-20.451c-.007-1.25.026-2.54-.408-3.71-.404-1.086-1.618-2.314-2.68-2.145" mask="url(#d)"/><path fill="#F8A688" d="M281.198 137.094a2.954 2.954 0 0 0-.605-.093c-.092-.004-.194.002-.263.078-.077.085-.083.229-.056.346.062.27.255.46.448.619.875.719-.073.831-.708 1.036-.691.223-1.398.382-2.115.329-.75-.056-1.505-.339-2.24-.145-.046.012-.098.03-.126.078a.288.288 0 0 0-.028.121c-.061.85.494 1.58 1.086 1.998 1.127.798 2.718.488 3.975.439 1.63-.063 3.26-.203 4.865-.583-.147.035.02-2.895.069-3.129-2.294.386-3.178-.81-4.302-1.094" mask="url(#d)"/><path fill="#2A284F" d="M298.133 109.147c.329.088.667-.168.992-.972 1.504-3.712-1.644-6.399-1.118-9.99.325-2.218 2.15-3.974 3.89-5.572-.28.257 3.092 3.923 3.408 4.536 1.286 2.489 1.69 5.403 2.127 8.114l2.538 15.758c.048.302.116.635.37.818.215.155.505.161.775.161 2.018 0 4.035-.003 6.053-.004.926 0 2.113-.189 2.307-1.052.069-.305-.018-.618-.104-.918l-5.424-18.952c-1.24-4.34-1.555-10.722-7.23-11.804-1.1-.207-2.231-.32-3.352-.249-4.775.3-7.23 4.079-7.74 8.434-.269 2.296-.086 4.645.368 6.907.15.745 1.097 4.504 2.14 4.785" mask="url(#d)"/><path fill="#FFF" d="M300.5 102c.181 1.14 1.007 2 2 2 .993 0 1.818-.86 2-2h-4z" mask="url(#d)"/><path fill="#F8A688" d="M228.643 145.108a1.563 1.563 0 0 0-.469-.083.498.498 0 0 0-.205-.155c-.991-.38-2.071.342-3.053.382-.138.004-.315-.044-.338-.22a.396.396 0 0 1 .053-.228c.144-.278.395-.42.6-.624.203-.204.378-.551.272-.856a.475.475 0 0 0-.491-.322c-.195.016-.376.132-.553.237-1.245.744-2.593 1.144-3.93 1.542-.545.162-.844.124-.986.846-.13.668.072 1.436.113 2.107.006.122.016.251.075.348a.465.465 0 0 0 .216.164c2.097.98 4.418.912 6.6.323 1.058-.285 2.171-.753 2.82-1.87.412-.706-.216-1.41-.724-1.591" mask="url(#d)"/><path fill="#428FFF" d="M184.108 133.784c1.22 2.919 2.769 5.624 4.284 8.404 1.078 1.98 1.694 4.186 3.864 5.395 1.65.92 3.59 1.231 5.487 1.476a113.838 113.838 0 0 0 22.757.649l-.008-6.458a206.571 206.571 0 0 0-23.642-3.167c-1.273-3.874-1.521-8.008-2.857-11.863-1.268-3.665-6.447-11.44-10.954-6.767-3.159 3.275-.7 7.911.701 11.428.12.301.243.603.368.903" mask="url(#d)"/><path fill="#F8A688" d="M214.67 119.54c.124-1.253.724-2.445 1.632-3.239.262-.23.651-.427.917-.202a.65.65 0 0 1 .158.22c.288.605.024 1.346-.318 1.92-.344.57-.78 1.123-.86 1.799-.026.224-.01.454-.044.677-.077.519-.855 1.53-1.45 1.23-.411-.205-.085-1.892-.035-2.405" mask="url(#d)"/><path fill="#97DAF0" d="M232.5 96.386v-14.38c0-1.108.915-2.006 2.043-2.006h20.914c1.128 0 2.043.898 2.043 2.006v14.38c0 1.108-.915 2.006-2.043 2.006H242.12L232.5 104l2.627-5.608h-.584c-1.128 0-2.043-.898-2.043-2.006" mask="url(#d)"/><path fill="#B8A7FF" d="M274.5 91.386v-14.38c0-1.108-.914-2.006-2.043-2.006h-20.914c-1.128 0-2.043.898-2.043 2.006v14.38c0 1.108.915 2.006 2.043 2.006h13.337L274.5 99l-2.627-5.608h.584c1.13 0 2.043-.898 2.043-2.006" mask="url(#d)"/><path fill="#FFF" d="M258.5 85a1 1 0 1 1-1.998.001 1 1 0 0 1 1.998 0M263.5 85a1 1 0 1 1-2 0 1 1 0 0 1 2 0M266.5 85a1 1 0 1 1-2 0 1 1 0 0 1 2 0" mask="url(#d)"/><path fill="#97DAF0" d="M163.5 64.5c0 4.694-5.373 8.5-12 8.5-6.628 0-12-3.806-12-8.5 0-4.695 5.372-8.5 12-8.5 6.627 0 12 3.805 12 8.5" mask="url(#d)"/><path fill="#97DAF0" d="M142.5 74l4.334-5 3.666 4.032z" mask="url(#d)"/><path fill="#FFF" d="M148.5 66a1 1 0 1 1-2 0 1 1 0 0 1 2 0M153.5 66a1 1 0 1 1-2 .001 1 1 0 0 1 2-.001" mask="url(#d)"/><path fill="#FFF" d="M155.5 66a1 1 0 1 1-2 0 1 1 0 0 1 2 0" mask="url(#d)"/><path fill="#2A284F" d="M131.584 61.48c-2.236-3.414-8.444-4.384-11.898-2.609-5.105 2.624-6.215 8.712-6.95 13.929-.907 6.423-1.548 12.883-2.188 19.34-.063.627-.116 1.301.195 1.847.525.919 1.772 1.02 2.82 1.013l21.902-.158c.115-6.16-.052-12.327-.5-18.471-.37-5.07-.611-10.195-3.246-14.675a7.275 7.275 0 0 0-.135-.216" mask="url(#d)"/><path fill="#F8A688" d="M110.042 134.778c.39-2.838.763-5.675 1.155-8.493v-.1H135.723c.541 0 2.248-.378 2.627-.054.58.496.678 2.982.818 3.743a80.769 80.769 0 0 1 .931 6.523c.175 1.725.295 3.456.36 5.19.236 6.346-.59 12.63-1.174 18.944L134.57 212h-1.762l-.705-7.797a5322.734 5322.734 0 0 1-1.682-18.314c-.666-7.103-1.31-14.226-1.957-21.329-.118-1.33-.255-2.679-.392-4.008-.414-4.103-.831-8.223-1.048-12.343h-3.964l-1.14 12.322L117.204 212h-1.761l-.705-7.797a5119.373 5119.373 0 0 1-1.683-18.314c-.665-7.103-1.31-14.226-1.956-21.329-.118-1.33-.255-2.679-.391-4.008-.627-6.21-1.312-12.46-1.195-18.691.06-2.361.216-4.742.529-7.083" mask="url(#d)"/><path fill="#C35BDC" d="M111.099 163.705c.646 6.945 1.291 13.91 1.956 20.855.473 5.153.962 10.302 1.451 15.44h3.643l3.77-40.234 1.14-12.05h3.965c.216 4.03.634 8.058 1.048 12.069.138 1.3.274 2.62.391 3.92.647 6.945 1.291 13.91 1.957 20.855.472 5.153.962 10.302 1.451 15.44h3.643l3.77-40.234c.585-6.175 1.41-12.32 1.175-18.525a78.283 78.283 0 0 0-1.291-11.453c-.14-.743-.239-3.175-.819-3.66-.378-.317-2.085.054-2.626.054h-24.526v.097c-.392 2.755-.764 5.53-1.155 8.304-.313 2.29-.47 4.617-.529 6.926-.117 6.093.568 12.204 1.195 18.276.136 1.3.273 2.62.39 3.92" mask="url(#d)"/><path fill="#F8A688" d="M136.259 86.857c-.25.597-.623 1.15-1.125 1.567-.59.487-1.347.658-2.03.979-.776.366-1.673.538-2.506.74-1.888.459-3.818.78-5.766.839-2.034.06-4.789.042-6.434-1.226-1.337-1.03-2.577-2.349-2.87-3.983-.028-.148-.045-.302-.001-.447.19-.623.974-.727 1.451-1.055.86-.59 1.724-1.206 2.673-1.657.925-.437 2.037-.883 2.82-1.573a12.116 12.116 0 0 0 1.802-1.987c.41-.57.748-1.098.883-1.786.271-1.387.445-3.014-.51-4.168-3.077-3.72-3.925-11.882 2.974-12.098 1.178-.039 2.35.435 3.218 1.2 1.56 1.366 2.25 3.811 2.145 5.807-.07 1.409-.58 2.795-1.417 3.948-.71.966-1.73 1.439-1.776 2.719-.043 1.03-.15 2.06-.064 3.09.118 1.428 1.274 2.285 2.357 3.09.51.379 1.086.658 1.617 1.005.571.375.957.854 1.367 1.386.39.508.78 1.017 1.095 1.57.155.274.292.562.328.872.041.346-.05.695-.173 1.022l-.058.146" mask="url(#d)"/><path fill="#FFF" d="M131.5 70c.003 1.103-1.113 1.998-2.5 2-1.374.002-2.496-.887-2.5-1.991l5-.009z" mask="url(#d)"/><path fill="#2A284F" d="M125.92 66.953c-1.24.89-2.18 2.122-3.077 3.35-.264.363-.63.77-1.073.686-.295-.056-.5-.318-.647-.577-.477-.838-.645-1.823-.62-2.785a7.749 7.749 0 0 1 2.645-5.588c1.543-1.335 6.78-3.42 8.145-.737 1.302 2.562-3.908 4.598-5.373 5.65" mask="url(#d)"/><path fill="#958BF3" d="M113.152 118.784c-.602 2.362-1.44 4.622-1.9 7.048-.446 2.36-.675 4.762-.752 7.168h28.984c.095-2.403-.246-4.679-.803-6.935-.41-1.66-.923-3.313-1.43-5.006-1.047-3.49-1.542-6.961-1.268-10.618.208-2.804.718-5.575.988-8.372.335-3.465.3-6.968-.101-10.425-.193-1.663-.172-3.612-.767-5.189-.393-1.038-1.15-1.968-1.831-2.811-.841-1.044-1.802-1.608-2.92-2.28-.03-.019-.066-.037-.098-.023-.026.011-.04.04-.052.066-1.023 2.244-3.696 2.972-5.914 2.53-1.411-.282-3.004-1.236-3.32-2.83-.012-.06-.05-.134-.097-.097-1.6.445-3.369.716-4.852 1.484-1.395.723-2.414 2.766-3.062 4.193-2.012 4.424-1.838 9.355-.914 14.052.785 3.993 1.869 8.029 1.43 12.08-.22 2.03-.818 3.991-1.321 5.965" mask="url(#d)"/><path fill="#F8A688" d="M108.942 101.56a96.099 96.099 0 0 1 2.857-9.642c.883-2.491 2.215-6.761 4.966-7.643 6.644-2.13 2.9 8.742 1.852 11.191-.61 1.421-1.466 2.733-2.056 4.123-.691 1.626-.95 3.625-1.19 5.365-.016.103-.023.224.053.295.058.053.142.058.22.06 1.747.052 18.851-.961 18.851-.516l.005 2.677c-1.73.834-3.634 1.225-5.522 1.569a138.298 138.298 0 0 1-14.98 1.89c-1.531.109-3.138.179-4.53-.472-3.675-1.721-1.203-6.073-.526-8.897" mask="url(#d)"/><path fill="#2A284F" d="M110.506 92.34c-.01.125-.016.267.067.362.084.095.225.104.351.106 4.028.064 9.443.129 13.47.192.348-5.831-.255-11.68-.49-17.518-.025-.59-.789-1.206-1.07-1.722-.27-.492-.737-.84-1.227-1.102-2.308-1.236-5.4-.686-7.164 1.274-1.218 1.353-1.772 3.185-2.208 4.968-1.097 4.475-1.355 8.881-1.73 13.44M135.488 90H150.5l-3.753 23H131.5z" mask="url(#d)"/><path fill="#F8A688" d="M145.978 99.198c-.741 1.44-.611 3.267.327 4.595.553.785 1.54 1.424 2.473 1.137.754-.232 1.204-.986 1.444-1.72.341-1.039.4-2.191-.005-3.208-.746-1.868-3.117-2.985-4.24-.804" mask="url(#d)"/><path fill="#E1C9C6" d="M141.471 102.064c-.047.55-.297.968-.557.934-.26-.035-.432-.51-.385-1.062.048-.55.297-.968.557-.934.26.036.432.51.385 1.062" mask="url(#d)"/><path fill="#F8A688" d="M118.599 207s-.124 5.107 3.782 6.421c.303.102.684.226.9.446.217.22.306.578.112.815-.183.224-.527.26-.831.274-.675.03-1.35.045-2.026.044-.32 0-.644-.006-.953-.082-.548-.134-1.01-.485-1.355-.898-.346-.414-.588-.89-.828-1.363l-.016 2.325-1.74-.01s-.552-4.15.507-6.953L118.6 207z" mask="url(#d)"/><path fill="#2A284F" d="M115.662 216.965l1.738.012.015-2.856c.236.581.481 1.163.825 1.673.344.506.806.94 1.351 1.105.307.096.634.098.952.1.673.005 1.346-.018 2.02-.052.303-.02.65-.061.831-.336.193-.292.102-.735-.11-1.002-.22-.272-.599-.424-.9-.554-.016-.005-.035-.011-.05-.022-1.246.328-3.479-.05-6.325-6.033-.885 3.538-.347 7.965-.347 7.965" mask="url(#d)"/><path fill="#F8A688" d="M135.46 207s.016 5.107 3.92 6.421c.304.102.685.226.901.446.217.22.306.578.112.815-.183.224-.527.26-.83.274a42.02 42.02 0 0 1-2.027.044c-.32 0-.644-.006-.953-.082-.548-.134-1.01-.485-1.355-.898-.346-.414-.588-.89-.828-1.363l-.016 2.325-1.74-.01s-.552-4.15.507-6.953l2.31-1.019z" mask="url(#d)"/><path fill="#2A284F" d="M132.662 216.965l1.738.012.015-2.856c.236.581.481 1.163.825 1.673.344.506.806.94 1.351 1.105.307.096.634.098.952.1.673.005 1.346-.018 2.02-.052.303-.02.65-.062.831-.336.193-.292.102-.735-.11-1.002-.22-.272-.599-.424-.9-.554-.016-.005-.035-.011-.05-.022-1.246.328-3.479-.05-6.325-6.033-.885 3.538-.347 7.965-.347 7.965" mask="url(#d)"/><path fill="#F8A688" d="M354.163 115.625c-.05.025-.098.05-.15.074-1.167.544-2.742 1.513-3.788 2.366-.827.675-1.53 1.69-1.725 2.906-.042.261 6.719-1.337 7.576-1.928.302-.207.382-.698.415-1.13.07-.918-.266-1.857-.628-2.625a.636.636 0 0 0-.157-.235c-.098-.074-.221-.057-.334-.03-.431.104-.811.392-1.209.602" mask="url(#d)"/><path fill="#9289F7" d="M380.994 98.64c.384-.733.717-1.49.976-2.28.799-2.439.782-5.292-.659-7.405-1.026-1.507-3.1-2.52-4.666-1.609-.959.56-1.456 1.657-1.894 2.688l-3.607 8.48c-1.184 2.782-2.928 5.284-4.214 8.06-2.38 5.14-7.441 6.586-12.33 8.259-.035.012-.074.027-.09.06-.022.042-.002.09.018.132a93.31 93.31 0 0 0 1.756 3.48c.063.12.129.24.23.33.461.413 1.202-.064 1.685-.2.65-.187 1.337-.275 1.995-.435 1.338-.326 2.66-.723 3.94-1.243 2.546-1.035 4.863-2.574 6.693-4.659 2.463-3.121 5.004-6.046 7.339-9.3 1.008-1.403 2.027-2.83 2.828-4.358" mask="url(#d)"/><path fill="#4521B0" d="M403.5 124h-35v18.432h.024c.007 8.73 1.182 17.463 2.012 26.194l1.909 20.074 1.51 15.898c.028.286.428 6.402.509 6.402h5.167l5.954-64.684L392.283 211h5.1c.245-2.567.52-6.25.764-8.816l1.722-18.11 2.004-21.08c.645-6.794 1.575-13.684 1.614-20.562h.013V124z" mask="url(#d)"/><path fill="#F8A688" d="M388.5 83.22c-.63-1.5-1.48-3.183-2.39-4.559-.976-1.477-1.2-1.536-.773-3.35 1.43-6.059-2.232-16.12-10.3-12.572-1.374.605-2.45 1.8-3.02 3.184-1.016 2.463-.425 5.712.825 8 .885 1.621 2.26 2.97 3.881 3.86 1.364.747 2.806.737 3.588 2.215L383.484 86c1.571-.975 3.262-2.194 5.016-2.78" mask="url(#d)"/><path fill="#FFF" d="M373.5 73.837c.802 1.82 2.949 2.653 4.805 1.867 1.844-.78 2.695-2.884 1.893-4.704l-6.698 2.837z" mask="url(#d)"/><path fill="#2A284F" d="M367.891 63.637c.191.505.44.994.724 1.455.67 1.079 1.707 2.122 3.002 2.126 3.075.01 5-3.175 8.37-2.304 1.36.352 2.606 1.551 2.468 2.915 1.067-.56 2.552-1.065 3.35-.175.924 1.027-1.496 6.095.683 6.343 1.334.153 2.714-6.698 2.877-7.62.448-2.527-.19-6.228-2.304-7.966-.476-.393-1.024-.694-1.588-.954-1.203-.556-3.552-1.573-4.907-1.031-.523.209-.922.776-1.485.724-.26-.382-.518-.766-.777-1.15l-2.288 1.825c-.081.064-.184.134-.282.097-.094-.035-.127-.145-.146-.24l-.24-1.109c-.762.205-1.317.822-1.924 1.316-.607.494-1.446.897-2.168.581-.603-.265-.902-1.046-.623-1.63-1.362.946-2.997 2.726-3.12 4.438-.059.802.094 1.6.378 2.359" mask="url(#d)"/><path fill="#9289F7" d="M386.185 80.918c.916-.305 1.832-.611 2.747-.918 1.6 3.599 5.465 3.691 8.128 6.106 2.63 2.382 4.387 5.582 5.223 8.966.45 1.822.62 3.697.788 5.563 1.098 12.181 1.429 24.142 1.429 36.365h-35.796c-.698 0 .611-14.218.71-15.381.665-7.802 1.34-15.38 3.32-23.007 1.27-4.888 3.272-11.108 8.201-13.611.682-.347 1.527-.938 1.25-1.637-.06-.155-.175-.29-.205-.451-.086-.445.448-.739.886-.885l3.319-1.11" mask="url(#d)"/><path fill="#F8A688" d="M361.806 119.388c-.05.001-.103 0-.154-.003-.534-.023-1.09.084-1.613-.053a4.018 4.018 0 0 1-1.811-1.044c-.138-.137-.29-.295-.472-.288-.16.006-.296.143-.363.304-.177.426.04.632.175 1.019.022.064.039.138.016.202-.02.055-.067.09-.113.119-.436.276-.974.205-1.477.19-.504-.015-1.08.08-1.353.547-.217.37-.168.88.042 1.26.21.38.552.646.91.846l.03.015c.871.477 1.837.55 2.793.47.686-.058 1.388-.177 2.083-.217.337-.02.678-.024 1.015.01.333.035.664.135 1 .096.333-.04.551-.392.71-.718.334-.692.31-1.567.212-2.32a.576.576 0 0 0-.072-.248c-.066-.1-.181-.137-.29-.162-.419-.095-.847-.026-1.268-.025" mask="url(#d)"/><path fill="#A69EF7" d="M391.159 112.495c1.551-3.739 3.145-7.46 4.407-11.37 1.537-4.764 1.568-11.038-2.942-14.23-3.224-2.282-6.525.165-8.185 3.242-3.428 6.352-3.443 15.747-3.623 22.798-.01.403-.023.827-.232 1.169-.185.302-.497.499-.8.679-5.052 2.992-10.756 3.53-16.42 4.841-.2.047-.42.105-.54.274-.106.148-.11.346-.109.53.002.292-.302 3.435-.19 3.466 7.275 2.003 17.84 1.376 24.413-2.63.33-.201.66-.416.912-.71.338-.396.511-.906.688-1.398.808-2.253 1.707-4.46 2.62-6.66" mask="url(#d)"/><path fill="#2A284F" d="M374.508 211l-6.67 3.61c-.574.344-.372 1.39.268 1.39h10.102c.737 0 1.324-.745 1.29-1.639l-.122-3.361h-4.868zM392.57 211l-6.734 3.61c-.571.344-.37 1.39.269 1.39h10.103c.736 0 1.324-.745 1.29-1.639l-.122-3.361h-4.806zM367.616 121h-19.78a.885.885 0 0 1-.814-.54l-9.45-22.222a.884.884 0 1 1 1.627-.698l9.221 21.683h19.196c.488 0 .884.398.884.888s-.396.889-.884.889" mask="url(#d)"/><path fill="#494E5E" d="M59.181 107H57.5V51.443C57.5 44.58 63.065 39 69.903 39H126.5l-1.627 6.185-1.625-.43 1.07-4.07H69.904c-5.912 0-10.722 4.826-10.722 10.758V107zM305.162 84H303.5V49.89h25.485c5.85 0 10.607-4.803 10.607-10.706v-5.799c0-6.83 5.503-12.385 12.269-12.385h17.371c6.765 0 12.268 5.555 12.268 12.385V50.73h-1.662V33.385c0-5.904-4.758-10.706-10.606-10.706h-17.371c-5.849 0-10.607 4.802-10.607 10.706v5.799c0 6.83-5.503 12.384-12.269 12.384h-23.823V84z" mask="url(#d)"/><path fill="#494E5E" d="M186.5 84h-1.663V29.398c0-5.91-4.757-10.718-10.605-10.718h-37.464c-5.848 0-10.605 4.808-10.605 10.718V41.22H124.5V29.398C124.5 22.56 130.004 17 136.768 17h37.464c6.765 0 12.268 5.56 12.268 12.398V84zM210.112 55H186.5v-1.671h23.612c5.888 0 10.679-4.78 10.679-10.657V20.329C220.79 13.53 226.332 8 233.144 8h9.095c6.81 0 12.352 5.531 12.352 12.329V37.66c0 5.876 4.791 10.657 10.68 10.657H304.5v1.671h-39.23c-6.81 0-12.352-5.53-12.352-12.328V20.329c0-5.876-4.792-10.658-10.68-10.658h-9.094c-5.889 0-10.68 4.782-10.68 10.658v22.343c0 6.798-5.541 12.328-12.352 12.328" mask="url(#d)"/><path fill="#494E5E" d="M136.5 41.5c0 5.798-4.7 10.5-10.5 10.5s-10.5-4.702-10.5-10.5S120.2 31 126 31s10.5 4.702 10.5 10.5M196.5 55.5c0 5.798-4.7 10.5-10.5 10.5s-10.5-4.702-10.5-10.5S180.2 45 186 45s10.5 4.702 10.5 10.5M315.5 50.5c0 5.798-4.7 10.5-10.5 10.5s-10.5-4.702-10.5-10.5S299.2 40 305 40s10.5 4.702 10.5 10.5M390.5 21.5c0 5.798-4.7 10.5-10.5 10.5s-10.5-4.702-10.5-10.5S374.2 11 380 11s10.5 4.702 10.5 10.5M233.5 10.5c0 5.798-4.7 10.5-10.5 10.5s-10.5-4.702-10.5-10.5S217.2 0 223 0s10.5 4.702 10.5 10.5M68.5 79.5C68.5 85.298 63.8 90 58 90s-10.5-4.702-10.5-10.5S52.2 69 58 69s10.5 4.702 10.5 10.5M61.5 108.5a2.5 2.5 0 1 1-5 0 2.5 2.5 0 0 1 5 0M187.5 86.5a2.5 2.5 0 1 1-4.999.001 2.5 2.5 0 0 1 4.999-.001M306.5 86.5a2.5 2.5 0 1 1-5 0 2.5 2.5 0 0 1 5 0M383.5 50.5a2.5 2.5 0 1 1-5 0 2.5 2.5 0 0 1 5 0" mask="url(#d)"/><path fill="#371991" d="M75.49 207.601c-.752 8.273-14.92 7.483-21.065 7.286-4.621-.15-9.092-1.53-11.704-5.477-1.473-2.22-2.328-5-2.21-7.664.083-2.04 1.356-3.043 1.573-5.05.017-.213.05-.427.084-.64.1-.691.251-1.415.486-2.056h.05c1.155.164 2.428.033 3.583.033h27.848v.066h-.068c.251 0 .47.526.637 1.38.435 2.024.636 5.872.737 8.701.066 1.809.066 3.19.05 3.421" mask="url(#d)"/><path fill="#F8A688" d="M69.364 150.638c-1.238 1.375-1.484 3.489.436 5.467 1.554 1.6 3.232 3.196 4.338 5.117 1.313 2.28 2.353 4.756 3.519 7.111.132.268.269.552.251.849-.017.29-.178.552-.334.8-1.618 2.569-3 5.26-5.086 7.464a84.304 84.304 0 0 0-6.522 7.788c-.233.315-.474.663-.466 1.051.006.283.146.545.283.796l1.59 2.919a82.48 82.48 0 0 1 8.897-8.579c3.021-2.507 8.161-6.257 8.23-10.577.015-1.02-.321-2.008-.653-2.975l-2.859-8.323c-1.225-3.565-6.41-14.695-11.624-8.908" mask="url(#d)"/><path fill="#2C7EF4" d="M73.5 159c.009-.015.004-.03.015-.044 2.005-2.456 3.91-5.16 5.985-7.66a97.166 97.166 0 0 0-2.653-3.575c-2.744-3.535-6.257-8.37-10.934-9.19-1.438-.254-2.73-.458-4.201-.525-.275-.012-.568-.02-.806.113-.169.096-.289.25-.404.403-.576.757-1.017 1.485-1.337 2.188-1.946 4.282.614 7.62 4.635 10.75 3.275 2.548 7.216 4.277 9.7 7.54" mask="url(#d)"/><path fill="#F8A688" d="M47.832 146.522c.978 1.498.824 3.778-.085 5.431-1.029 1.874-2.754 3.124-3.775 4.977-1.277 2.318-2.324 4.809-3.272 7.284-.426 1.111-.83 2.262-.842 3.457-.017 1.447.539 2.829 1.085 4.163l2.724 6.654c.981 2.398 2.278 5.28 3.945 7.256A10.82 10.82 0 0 0 44.56 189c-2.858-2.443-4.478-6.048-6.008-9.53l-2.439-5.546c-.528-1.203-1.06-2.415-1.34-3.701-.638-2.914.052-5.878.02-8.816-.03-2.727.716-5.153 1.788-7.663 1.397-3.274 2.987-7.199 6.54-8.442 1.248-.437 2.706-.45 3.806.295.371.25.67.565.906.925" mask="url(#d)"/><path fill="#2C7EF4" d="M57.843 138.264c-.389-.273-.897-.274-1.369-.259-3.292.11-6.698.222-9.414 2.288-2.64 2.009-4.573 4.815-6.524 7.471a95.591 95.591 0 0 0-3.036 4.37c1.44 1.601 2.94 3.147 4.405 4.728.37.4 1.336 1.238 2.135 2.138 2.487-3.104 6.045-4.888 9.12-7.416 1.665-1.32 3.188-2.973 4.175-4.88 1.042-2.012 1.15-3.992 1.164-6.192l.001-.21c.003-.746-.054-1.614-.657-2.038" mask="url(#d)"/><path fill="#2C7EF4" d="M73.5 195h-31l.444-35.7c0-11.763 6.74-21.3 15.056-21.3 8.315 0 15.056 9.537 15.056 21.3L73.5 195z" mask="url(#d)"/><path fill="#F8A688" d="M56.204 139.74c-.39-.852-.345-1.982-.335-2.944.007-.544.01-1.107-.206-1.601-.164-.375-.44-.68-.694-.994-2.165-2.671-3.256-7.276-1.815-10.586 1.009-2.317 2.962-3.507 5.365-3.61 1.772-.075 4.074.581 5.002 2.2 1.16 2.018 1.1 5.255.776 7.505-.229 1.587-.842 3.165-1.98 4.24-.393.371-.86.706-1.05 1.223-.307.83-.065 2.127-.072 3.014-.005.54-.015 1.102-.25 1.581-.228.468-.655.81-1.124.998-.468.189-.979.24-1.481.234a2.832 2.832 0 0 1-.828-.11 2.051 2.051 0 0 1-1.308-1.15" mask="url(#d)"/><path fill="#FFF" d="M61.499 132c.043 1.619-1.266 2.958-2.93 3-1.65.04-3.027-1.233-3.069-2.852l5.999-.148z" mask="url(#d)"/><path fill="#2A284F" d="M52.22 127.693l.045.124c.107.287.234.58.464.775-.104-.088-.026-.696-.016-.829.023-.296.076-.59.158-.874.154-.536.39-1.063.755-1.48.761-.874 1.747-1.506 2.718-2.103l-1.053 1.945a13.336 13.336 0 0 0 3.554-2.344l-.612 1.816a9.645 9.645 0 0 0 2.76-1.696c-.247.754-.421 1.53-.523 2.319a16.9 16.9 0 0 0 2.556-2.012 3.708 3.708 0 0 0-.253 1.703c.344-.155.64-.417.84-.742-.177.298.782 1.335.9 1.614.384.897.36 2.134.282 3.091 1.774-2.783 1.738-6.23 2.705-9.309-.476.417-1.24.424-1.812.66.038-.44.676-3.052 1.213-3.093a4.733 4.733 0 0 0-3.09 1.517l.684-2.55c-.983.372-1.925.86-2.8 1.451a6.116 6.116 0 0 1 1.4-2.634 8.624 8.624 0 0 0-4.133 2.256c.001-.874.399-1.739 1.056-2.298a9.289 9.289 0 0 0-4.424 3.122l.188-1.413c-.968.982-2.09 1.805-2.986 2.858-.971 1.142-1.325 2.497-1.294 3.987.03 1.427.232 2.796.717 4.14" mask="url(#d)"/><path fill="#FFB55B" d="M46.247 176.978c.065.037.13.073.196.108.684.363 1.302.848 2.056 1.113a8.106 8.106 0 0 0 3.009.46c.27-.01.571-.029.796.107.195.12.266.327.236.505-.083.467-.5.48-.944.692-.076.036-.15.084-.166.152-.013.057.02.12.056.175.347.534 1.073.863 1.713 1.212.64.349 1.292.838 1.301 1.41.008.45-.419.826-.952.98-.533.155-1.152.123-1.742.026l-.045-.007c-1.431-.243-2.691-.876-3.831-1.626-.815-.537-1.609-1.137-2.448-1.668a12.62 12.62 0 0 0-1.277-.717c-.441-.21-.927-.369-1.319-.643-.387-.27-.41-.708-.374-1.083.075-.796.728-1.482 1.388-2.016a.644.644 0 0 1 .266-.148c.153-.032.326.02.48.079.59.223 1.076.586 1.601.889" mask="url(#d)"/><path fill="#F8A688" d="M52.749 129.995a.598.598 0 0 0 .51-.19c.749-.733-.387-3.666-1.478-2.557-.74.754.122 2.64.968 2.747M64.25 129.995a.595.595 0 0 1-.508-.19c-.75-.733.387-3.666 1.476-2.557.741.754-.12 2.64-.967 2.747" mask="url(#d)"/><path fill="#D0E3FD" d="M41.5 196h33v-24h-33z" mask="url(#d)"/><path fill="#2A284F" d="M42.91 194.646h31.18v-21.293H42.91v21.293zM74.869 196H42.13a.619.619 0 0 1-.631-.607v-22.786a.62.62 0 0 1 .631-.607H74.87a.62.62 0 0 1 .631.607v22.786a.619.619 0 0 1-.631.607z" mask="url(#d)"/><path fill="#2A284F" d="M55.5 186h5v-5h-5z" mask="url(#d)"/><path fill="#4521B0" d="M71.387 213.698c1.03.542 2.067 1.051 3.113 1.519-.522 1.233-.805 2.473-.991 3.783-9.748-2.214-19.778-2.55-29.442-5.064-6.94-1.805-15.667-4.744-18.758-11.655-2.313-5.174.434-11.415 6.98-10.104 5.759 1.154 11.662 5.884 16.737 8.734 7.478 4.196 14.79 8.813 22.36 12.787" mask="url(#d)"/><path fill="#5A37C4" d="M46.613 213.698a54.928 54.928 0 0 1-3.113 1.519c.522 1.233.805 2.473.991 3.783 9.747-2.214 19.777-2.55 29.44-5.064 6.94-1.805 15.67-4.744 18.76-11.655 2.313-5.174-.435-11.415-6.979-10.104-5.76 1.154-11.663 5.884-16.738 8.734-7.478 4.196-14.79 8.813-22.36 12.787" mask="url(#d)"/><path fill="#2A284F" d="M76.801 215.268c-.27-.055-2.045-.476-2.14-.137-.012.037-.287 1.011-.577 2.038l-.58 2.039c-.096.336 1.57 1.142 1.82 1.272a13.54 13.54 0 0 0 2.424.98c1.444.426 2.96.654 4.424.483.6-.07 1.515-.16 1.98-.565a.937.937 0 0 0 .239-.366l.007.002c.02-.05.025-.104.04-.155.015-.052.038-.1.047-.153l-.006-.003a1.063 1.063 0 0 0-.007-.453c-.172-.633-.873-1.3-1.326-1.743-1.107-1.088-2.463-1.883-3.861-2.469a13.323 13.323 0 0 0-2.484-.77M42.662 220.56c.25-.127 1.925-.916 1.834-1.26l-.549-2.08c-.274-1.047-.536-2.042-.547-2.081-.09-.343-1.869.05-2.14.102-.844.16-1.68.408-2.49.736-1.404.57-2.77 1.354-3.89 2.438-.459.443-1.168 1.107-1.35 1.746a1.083 1.083 0 0 0-.011.46l-.008.002c.01.056.031.104.045.157.014.053.02.108.038.158l.008-.003c.055.148.126.28.231.378.46.42 1.374.527 1.971.609 1.46.2 2.976-.004 4.424-.41.834-.234 1.65-.553 2.434-.952" mask="url(#d)"/><path fill="#32E5E5" d="M51.5 162.655v-11.983c0-.923-.731-1.672-1.635-1.672h-16.73c-.903 0-1.635.749-1.635 1.672v11.983c0 .923.732 1.672 1.635 1.672h10.669L51.5 169l-2.103-4.673h.468c.904 0 1.635-.749 1.635-1.672" mask="url(#d)"/><path fill="#FFF" d="M39.5 157a1 1 0 1 1-2 .001 1 1 0 0 1 2-.002M42.5 157a1 1 0 1 1-2 .001 1 1 0 0 1 2-.002M46.5 157a1 1 0 1 1-2 .001 1 1 0 0 1 2-.002" mask="url(#d)"/><path fill="#DEB5EB" d="M71.5 122.656v-11.984c0-.923.731-1.672 1.635-1.672h16.73c.903 0 1.635.749 1.635 1.672v11.984c0 .922-.732 1.671-1.635 1.671H79.196L71.5 129l2.103-4.673h-.468c-.904 0-1.635-.749-1.635-1.671" mask="url(#d)"/><path fill="#FFF" d="M83.5 117a1 1 0 1 0 2 0 1 1 0 0 0-2 0M80.5 117a1 1 0 1 0 2 0 1 1 0 0 0-2 0M76.5 117a1 1 0 1 0 2 .001 1 1 0 0 0-2-.002M382.779 22.61a2.992 2.992 0 1 1-5.558-2.22 2.992 2.992 0 0 1 5.558 2.22zm1.253-.11a4.138 4.138 0 0 0-.027-2.104l.463-.199-.447-1.04-.463.2a4.137 4.137 0 0 0-1.507-1.47l.187-.468-1.051-.419-.187.468a4.128 4.128 0 0 0-2.104.026l-.198-.462-1.04.446.198.462a4.131 4.131 0 0 0-1.468 1.508l-.467-.186-.421 1.05.468.188a4.136 4.136 0 0 0 .027 2.104l-.463.199.447 1.04.463-.198c.359.597.87 1.107 1.507 1.468l-.187.468 1.051.419.187-.468a4.12 4.12 0 0 0 2.104-.026l.198.463 1.04-.447-.198-.462a4.143 4.143 0 0 0 1.468-1.508l.468.187.42-1.051-.468-.188zM128.779 42.61a2.992 2.992 0 1 1-5.558-2.218 2.992 2.992 0 0 1 5.558 2.217zm1.253-.11a4.127 4.127 0 0 0-.027-2.103l.463-.199-.446-1.04-.463.198a4.135 4.135 0 0 0-1.507-1.468l.187-.468-1.052-.42-.187.468a4.129 4.129 0 0 0-2.104.027l-.198-.463-1.04.446.198.463a4.14 4.14 0 0 0-1.468 1.507l-.467-.187-.421 1.052.469.187a4.13 4.13 0 0 0 .027 2.104l-.464.199.447 1.04.463-.199c.359.598.87 1.108 1.507 1.469l-.187.468 1.051.419.187-.468c.71.177 1.432.16 2.104-.027l.198.463 1.041-.446-.199-.463a4.129 4.129 0 0 0 1.468-1.507l.468.187.42-1.052-.468-.187zM305.987 47.717c-.626-.761-2.634-1.201-3.853.176a9.47 9.47 0 0 1-1.015.966l-.023.02-.596.502c.03.104.104.28.267.368.263.143.671.015 1.184-.369.203-.151.422-.217.65-.217.358 0 .738.16 1.112.409l.236.149 2.71 1.711.9.568.941-.078-.557-3.608c-.503.067-1.407.073-1.956-.597" mask="url(#d)"/><path fill="#FFF" d="M308.345 52.015l-.255-.152-.203-.122-.203-.122-2.255-1.351-.48-.288-.757-.454-.004.002a1.198 1.198 0 0 0-.068-.045l-.083-.05.002-.002c-.56-.35-1.12-.498-1.565-.182-.609.434-1.097.56-1.448.377-.358-.188-.427-.625-.43-.643l-.012-.087.617-.493c-.335-.134-.67-.27-1.005-.403l-.696 4.292c.151.072.317.16.49.259.088-.277.316-.477.586-.477.332 0 .601.302.621.679.001.015.004.03.004.045v.388a.575.575 0 0 1 .413-.183c.345 0 .626.324.626.724v.081a.577.577 0 0 1 .414-.185c.345 0 .625.325.625.724v.288a.467.467 0 0 1 .32-.133c.28 0 .51.265.51.592V55.667l.29.194a.562.562 0 0 0 .589.095.593.593 0 0 0 .161-.1.706.706 0 0 0 .133-.158.808.808 0 0 0 .11-.54l-1.289-.839c-.057-.037-.077-.121-.044-.187.032-.066.103-.09.16-.051l1.813 1.178a.592.592 0 0 0 .381-.248.805.805 0 0 0 .09-.74l-1.58-1.03c-.058-.037-.078-.12-.046-.186.033-.067.105-.091.162-.053l1.952 1.27a.61.61 0 0 0 .477-.297c.125-.2.15-.45.084-.668l-1.972-1.283c-.057-.037-.078-.12-.045-.186.032-.068.104-.09.162-.053l2.193 1.428a.592.592 0 0 0 .099-.01.618.618 0 0 0 .332-.202.69.69 0 0 0 .133-.232.878.878 0 0 0 .046-.293.861.861 0 0 0-.155-.46" mask="url(#d)"/><path fill="#FFF" d="M304 55c-.146 0-.27.064-.32.154a.174.174 0 0 0-.028.09v.511c0 .135.156.245.349.245.19 0 .347-.11.347-.245v-.51c0-.135-.156-.245-.348-.245M303 54a.488.488 0 0 0-.422.251.52.52 0 0 0-.071.26v.977c0 .281.221.512.493.512.271 0 .493-.23.493-.512v-.976A.504.504 0 0 0 303 54M301 53a.482.482 0 0 0-.343.145.514.514 0 0 0-.15.367v.976c0 .282.221.512.493.512.271 0 .493-.23.493-.512v-.976A.504.504 0 0 0 301 53M300 52a.498.498 0 0 0-.473.37.594.594 0 0 0-.02.142v.977c0 .281.221.511.493.511s.493-.23.493-.511v-.977A.504.504 0 0 0 300 52M311.442 51.343l-.017-.112-.662-4.231-1.263.286.002.015.022.138.02.137.564 3.597.021.139.022.137.086.551 1.263-.286zM299.5 47.286L298.237 47l-.737 4.715 1.263.285.017-.112.656-4.188zM190.486 53.032c-.159.179-.387.324-.63.477-.135.086-.27.173-.397.266a1.9 1.9 0 0 0-.385.363c.184-.882.187-1.794.157-2.392.54-.233 1.005-.089 1.249.127.268.235.431.68.006 1.159m-4.111.175c.053.04.191.111.418.212.015.01.026.015.041.02.241.105.407.22.501.34.094.122.14.275.14.459a.79.79 0 0 1-.132.45.861.861 0 0 1-.38.305.992.992 0 0 1-.17.057v.345c0 .16-.13.29-.294.29a.292.292 0 0 1-.294-.29v-.298a1.708 1.708 0 0 1-.68-.167l-.001-.655a2.292 2.292 0 0 0 .68.214c.068.008.133.014.195.014.11 0 .194-.018.247-.057a.175.175 0 0 0 .076-.145.139.139 0 0 0-.032-.098.307.307 0 0 0-.1-.086 4.75 4.75 0 0 0-.372-.176c-.005-.003-.01-.006-.013-.006a1.824 1.824 0 0 1-.393-.227.714.714 0 0 1-.203-.263.84.84 0 0 1-.065-.348c0-.25.092-.446.28-.588a.981.981 0 0 1 .38-.17v-.29c0-.16.133-.288.295-.288a.29.29 0 0 1 .294.287v.262c.223.024.45.084.683.185l-.233.57a1.857 1.857 0 0 0-.45-.15 1.001 1.001 0 0 0-.223-.026.374.374 0 0 0-.213.05c-.045.034-.068.075-.068.126 0 .052.03.101.086.142m-2.833.568a7.755 7.755 0 0 0-.398-.266c-.242-.153-.47-.298-.63-.477-.426-.478-.263-.924.006-1.159.243-.215.707-.36 1.247-.127-.03.597-.027 1.508.156 2.389a1.935 1.935 0 0 0-.381-.36m7.485-2.33c-.41-.36-1.103-.573-1.85-.36l-.001-.014h-5.355l-.001.013c-.745-.211-1.438.001-1.847.362-.504.442-.72 1.219-.064 1.956.222.25.504.428.777.601.122.078.244.155.358.239.165.12.263.224.306.322.036.083.029.178-.02.22-.085.077-.346.078-.485.078-.208.001-.376.14-.375.313 0 .171.169.31.376.31.255 0 .73-.001 1.037-.279a.71.71 0 0 0 .225-.388c.292.845.808 1.567 1.704 1.81v2.12c0 .11-.018.216-.052.321a1.191 1.191 0 0 1-.308.49l-.327.31h-.082c-.52 0-.94.35-.94.78V61h4.792v-.352c0-.43-.422-.778-.94-.778h-.082l-.324-.311a1.208 1.208 0 0 1-.308-.49 1.053 1.053 0 0 1-.053-.321v-2.12c.897-.244 1.413-.966 1.703-1.813.03.148.108.285.226.391.308.278.782.28 1.036.28h.002c.207 0 .375-.14.375-.311.001-.173-.167-.312-.375-.313-.14 0-.4 0-.485-.078-.048-.042-.056-.137-.02-.22.044-.098.141-.201.307-.322.113-.084.235-.161.357-.239.272-.173.555-.352.777-.6.655-.738.44-1.515-.064-1.957M223.597 13.34c0-.264.158-.496.396-.632-.258-.131-.433-.372-.433-.649v-.094c0-.323.238-.598.57-.706a.71.71 0 0 1-.287-.556v-.094c0-.395.352-.716.799-.75a.704.704 0 0 1-.236-.512v-.094c0-.392.348-.712.791-.75.395-.358.971-1.019 1.217-1.978C226.807 5 225.728 5 225.728 5c-1.98 3.418-4.982 3.833-6.228 3.846v3.787c.14.057.273.128.393.216 1.476 1.081 3.032 1.2 3.986 1.138a.708.708 0 0 1-.282-.553v-.094z" mask="url(#d)"/><path fill="#FFF" d="M227.95 8h-1.9c-.189 0-.356.08-.456.202a.404.404 0 0 0-.094.256v.084c0 .095.035.183.094.256a.59.59 0 0 0 .457.202h1.898c.304 0 .551-.206.551-.458v-.084c0-.253-.247-.458-.55-.458M226.95 12h-1.899c-.304 0-.551.205-.551.457v.085c0 .23.204.417.466.45a.654.654 0 0 0 .085.008h1.898c.304 0 .551-.205.551-.458v-.085c0-.252-.247-.457-.55-.457" mask="url(#d)"/><path fill="#FFF" d="M227.876 9H225.124c-.345 0-.624.205-.624.457v.085c0 .253.28.458.624.458H227.876c.345 0 .624-.205.624-.458v-.085c0-.252-.28-.457-.624-.457M226.877 11h-2.753c-.344 0-.624.206-.624.458v.084c0 .253.28.458.624.458h2.753c.344 0 .623-.205.623-.458v-.084c0-.252-.28-.458-.623-.458M218.5 12h1V7h-1zM215.5 14h2V7h-2zM58.5 84.325A5.331 5.331 0 0 1 53.175 79a5.331 5.331 0 0 1 5.325-5.325A5.332 5.332 0 0 1 63.826 79a5.332 5.332 0 0 1-5.326 5.325M58.5 73a6 6 0 1 0 0 12 6 6 0 0 0 0-12" mask="url(#d)"/><path fill="#FFF" d="M56.18 80.82l.544-1.097c.553.476 1.389.812 1.948.812.415 0 .675-.152.675-.435 0-.913-2.83-.361-2.83-2.263 0-.852.614-1.443 1.596-1.603v-1.128h1.02v1.12a3.98 3.98 0 0 1 1.68.575l-.53 1.112c-.568-.322-1.289-.575-1.734-.575-.337 0-.56.123-.56.368 0 .89 2.831.383 2.831 2.316 0 .944-.721 1.496-1.688 1.626v1.174h-1.02v-1.181c-.72-.1-1.418-.4-1.932-.821M58.5 74c-2.757 0-5 2.243-5 5s2.243 5 5 5 5-2.243 5-5-2.243-5-5-5" mask="url(#d)"/></g></svg>